{
  "accessors": [
    {
      "bufferView": 2,
      "componentType": 5126,
      "count": 1108,
      "max": [
        -0.14751629531383514,
        0.13256709277629852,
        1.2877030372619629
      ],
      "min": [
        -0.37986838817596436,
        -0.052222270518541336,
        0.83389961719512939
      ],
      "type": "VEC3"
    },
    {
      "bufferView": 2,
      "byteOffset": 13296,
      "componentType": 5126,
      "count": 1108,
      "max": [
        0.9994361400604248,
        0.99888008832931519,
        0.91618454456329346
      ],
      "min": [
        -0.99932843446731567,
        -0.99530047178268433,
        -0.99483907222747803
      ],
      "type": "VEC3"
    },
    {
      "bufferView": 3,
      "componentType": 5126,
      "count": 1108,
      "max": [
        0.99914515018463135,
        0.99900388717651367,
        0.99988895654678345,
        1
      ],
      "min": [
        -0.99335891008377075,
        -0.99694168567657471,
        -0.9675910472869873,
        -1
      ],
      "type": "VEC4"
    },
    {
      "bufferView": 1,
      "componentType": 5126,
      "count": 1108,
      "max": [
        0.99606597423553467,
        -0.053498979657888412
      ],
      "min": [
        0.0060140001587569714,
        -0.99597001075744629
      ],
      "type": "VEC2"
    },
    {
      "bufferView": 0,
      "componentType": 5125,
      "count": 4116,
      "max": [
        1107
      ],
      "min": [
        0
      ],
      "type": "SCALAR"
    },
    {
      "bufferView": 2,
      "byteOffset": 26592,
      "componentType": 5126,
      "count": 1258,
      "max": [
        0.29237839579582214,
        -0.024846190586686134,
        1.3646359443664551
      ],
      "min": [
        0.14453190565109253,
        -0.17080040276050568,
        0.84633612632751465
      ],
      "type": "VEC3"
    },
    {
      "bufferView": 2,
      "byteOffset": 41688,
      "componentType": 5126,
      "count": 1258,
      "max": [
        0.99908620119094849,
        0.99894088506698608,
        0.97755992412567139
      ],
      "min": [
        -0.99328476190567017,
        -0.99991679191589355,
        -0.98645561933517456
      ],
      "type": "VEC3"
    },
    {
      "bufferView": 3,
      "byteOffset": 17728,
      "componentType": 5126,
      "count": 1258,
      "max": [
        0.99890637397766113,
        0.99877160787582397,
        0.9976239800453186,
        1
      ],
      "min": [
        -0.99989807605743408,
        -0.9986196756362915,
        -0.99991101026535034,
        -1
      ],
      "type": "VEC4"
    },
    {
      "bufferView": 1,
      "byteOffset": 8864,
      "componentType": 5126,
      "count": 1258,
      "max": [
        0.9956589937210083,
        -0.044293999671936035
      ],
      "min": [
        0.0021569998934864998,
        -0.99597001075744629
      ],
      "type": "VEC2"
    },
    {
      "bufferView": 0,
      "byteOffset": 16464,
      "componentType": 5125,
      "count": 4878,
      "max": [
        1257
      ],
      "min": [
        0
      ],
      "type": "SCALAR"
    },
    {
      "bufferView": 2,
      "byteOffset": 56784,
      "componentType": 5126,
      "count": 8985,
      "max": [
        0.25007531046867371,
        0.16496109962463379,
        1.8873139619827271
      ],
      "min": [
        -0.38905641436576843,
        -0.21297529339790344,
        -0.0087441802024841309
      ],
      "type": "VEC3"
    },
    {
      "bufferView": 2,
      "byteOffset": 164604,
      "componentType": 5126,
      "count": 8985,
      "max": [
        0.99969130754470825,
        0.99979907274246216,
        0.99793583154678345
      ],
      "min": [
        -0.99999213218688965,
        -0.99994343519210815,
        -0.99995177984237671
      ],
      "type": "VEC3"
    },
    {
      "bufferView": 3,
      "byteOffset": 37856,
      "componentType": 5126,
      "count": 8985,
      "max": [
        0.99993139505386353,
        0.99991416931152344,
        0.99974673986434937,
        1
      ],
      "min": [
        -0.99998950958251953,
        -0.99993598461151123,
        -0.99984884262084961,
        -1
      ],
      "type": "VEC4"
    },
    {
      "bufferView": 1,
      "byteOffset": 18928,
      "componentType": 5126,
      "count": 8985,
      "max": [
        0.99873501062393188,
        -0.0020999910775572062
      ],
      "min": [
        0.005431000143289566,
        -1.8078349828720093
      ],
      "type": "VEC2"
    },
    {
      "bufferView": 0,
      "byteOffset": 35976,
      "componentType": 5125,
      "count": 37194,
      "max": [
        8984
      ],
      "min": [
        0
      ],
      "type": "SCALAR"
    },
    {
      "bufferView": 2,
      "byteOffset": 272424,
      "componentType": 5126,
      "count": 1853,
      "max": [
        0.096877813339233398,
        0.080916188657283783,
        1.887315034866333
      ],
      "min": [
        -0.082450322806835175,
        -0.12664300203323364,
        1.6495250463485718
      ],
      "type": "VEC3"
    },
    {
      "bufferView": 2,
      "byteOffset": 294660,
      "componentType": 5126,
      "count": 1853,
      "max": [
        0.99922430515289307,
        0.99992382526397705,
        0.999714195728302
      ],
      "min": [
        -0.99999213218688965,
        -0.99955207109451294,
        -0.99990296363830566
      ],
      "type": "VEC3"
    },
    {
      "bufferView": 3,
      "byteOffset": 181616,
      "componentType": 5126,
      "count": 1853,
      "max": [
        0.9994623064994812,
        0.99955505132675171,
        0.98530668020248413,
        1
      ],
      "min": [
        -0.99933570623397827,
        -0.99988657236099243,
        -0.9973796010017395,
        -1
      ],
      "type": "VEC4"
    },
    {
      "bufferView": 1,
      "byteOffset": 90808,
      "componentType": 5126,
      "count": 1853,
      "max": [
        0.49218401312828064,
        -0.0017789599951356649
      ],
      "min": [
        0.0028299998957663774,
        -0.32065701484680176
      ],
      "type": "VEC2"
    },
    {
      "bufferView": 0,
      "byteOffset": 184752,
      "componentType": 5125,
      "count": 10278,
      "max": [
        1852
      ],
      "min": [
        0
      ],
      "type": "SCALAR"
    },
    {
      "bufferView": 2,
      "byteOffset": 316896,
      "componentType": 5126,
      "count": 21,
      "max": [
        0.0040962779894471169,
        -0.13389229774475098,
        1.6474839448928833
      ],
      "min": [
        -0.042349468916654587,
        -0.19928209483623505,
        1.5496259927749634
      ],
      "type": "VEC3"
    },
    {
      "bufferView": 2,
      "byteOffset": 317148,
      "componentType": 5126,
      "count": 21,
      "max": [
        0.97728240489959717,
        0.89576250314712524,
        0.36964151263237
      ],
      "min": [
        -0.97806167602539062,
        -0.92925447225570679,
        -0.45838832855224609
      ],
      "type": "VEC3"
    },
    {
      "bufferView": 3,
      "byteOffset": 211264,
      "componentType": 5126,
      "count": 21,
      "max": [
        0.99121385812759399,
        0.91470938920974731,
        0.39628848433494568,
        1
      ],
      "min": [
        -0.98790329694747925,
        -0.91947716474533081,
        -0.40065118670463562,
        1
      ],
      "type": "VEC4"
    },
    {
      "bufferView": 1,
      "byteOffset": 105632,
      "componentType": 5126,
      "count": 21,
      "max": [
        0.4463840126991272,
        1.5654480457305908
      ],
      "min": [
        0.40219300985336304,
        1.5300120115280151
      ],
      "type": "VEC2"
    },
    {
      "bufferView": 0,
      "byteOffset": 225864,
      "componentType": 5125,
      "count": 57,
      "max": [
        20
      ],
      "min": [
        0
      ],
      "type": "SCALAR"
    },
    {
      "bufferView": 2,
      "byteOffset": 317400,
      "componentType": 5126,
      "count": 1371,
      "max": [
        0.13505619764328003,
        0.083591252565383911,
        1.9366480112075806
      ],
      "min": [
        -0.17257970571517944,
        -0.43195769190788269,
        1.0456629991531372
      ],
      "type": "VEC3"
    },
    {
      "bufferView": 2,
      "byteOffset": 333852,
      "componentType": 5126,
      "count": 1371,
      "max": [
        0.99648028612136841,
        0.99956762790679932,
        0.99856847524642944
      ],
      "min": [
        -0.99813872575759888,
        -0.99977320432662964,
        -0.98642361164093018
      ],
      "type": "VEC3"
    },
    {
      "bufferView": 3,
      "byteOffset": 211600,
      "componentType": 5126,
      "count": 1371,
      "max": [
        0.99999648332595825,
        0.99668210744857788,
        0.9983828067779541,
        1
      ],
      "min": [
        -0.99922233819961548,
        -0.99829310178756714,
        -0.99750572443008423,
        -1
      ],
      "type": "VEC4"
    },
    {
      "bufferView": 1,
      "byteOffset": 105800,
      "componentType": 5126,
      "count": 1371,
      "max": [
        2,
        0.99486887454986572
      ],
      "min": [
        0,
        -0.99883699417114258
      ],
      "type": "VEC2"
    },
    {
      "bufferView": 0,
      "byteOffset": 226092,
      "componentType": 5125,
      "count": 3843,
      "max": [
        1370
      ],
      "min": [
        0
      ],
      "type": "SCALAR"
    }
  ],
  "asset": {
    "extras": {
      "author": "judgmentfist (https://sketchfab.com/judgmentfist)",
      "license": "CC-BY-4.0 (http://creativecommons.org/licenses/by/4.0/)",
      "source": "https://sketchfab.com/models/366c8e8adc5f43df8336ce80bd116b66",
      "title": "Revised Jade MK9"
    },
    "generator": "Sketchfab-3.19.7",
    "version": "2.0"
  },
  "bufferViews": [
    {
      "buffer": 0,
      "byteLength": 241464,
      "byteOffset": 0,
      "name": "floatBufferViews",
      "target": 34963
    },
    {
      "buffer": 0,
      "byteLength": 116768,
      "byteOffset": 241464,
      "byteStride": 8,
      "name": "floatBufferViews",
      "target": 34962
    },
    {
      "buffer": 0,
      "byteLength": 350304,
      "byteOffset": 358232,
      "byteStride": 12,
      "name": "floatBufferViews",
      "target": 34962
    },
    {
      "buffer": 0,
      "byteLength": 233536,
      "byteOffset": 708536,
      "byteStride": 16,
      "name": "floatBufferViews",
      "target": 34962
    }
  ],
  "buffers": [
    {
      "byteLength": 942072,
      "uri": "scene.bin"
    }
  ],
  "images": [
    {
      "uri": "textures/Model001_Material005_baseColor.png"
    },
    {
      "uri": "textures/Model001_Material005_normal.png"
    },
    {
      "uri": "textures/Model001_Material006_baseColor.png"
    },
    {
      "uri": "textures/Model001_Material006_normal.png"
    },
    {
      "uri": "textures/Model001_Material002_baseColor.png"
    },
    {
      "uri": "textures/Model001_Material002_normal.png"
    },
    {
      "uri": "textures/Model001_Material004_baseColor.png"
    },
    {
      "uri": "textures/Model001_Material004_normal.png"
    },
    {
      "uri": "textures/Model001_Material001_baseColor.png"
    },
    {
      "uri": "textures/Model001_Material001_normal.png"
    },
    {
      "uri": "textures/Model001_Material003_baseColor.png"
    },
    {
      "uri": "textures/Model001_Material003_normal.png"
    }
  ],
  "materials": [
    {
      "doubleSided": true,
      "emissiveFactor": [
        0,
        0,
        0
      ],
      "name": "Model001_Material001",
      "normalTexture": {
        "index": 9,
        "scale": 1,
        "texCoord": 0
      },
      "pbrMetallicRoughness": {
        "baseColorFactor": [
          1,
          1,
          1,
          1
        ],
        "baseColorTexture": {
          "index": 8,
          "texCoord": 0
        },
        "metallicFactor": 0,
        "roughnessFactor": 0.59999999999999998
      }
    },
    {
      "doubleSided": true,
      "emissiveFactor": [
        0,
        0,
        0
      ],
      "name": "Model001_Material002",
      "normalTexture": {
        "index": 5,
        "scale": 1,
        "texCoord": 0
      },
      "pbrMetallicRoughness": {
        "baseColorFactor": [
          1,
          1,
          1,
          1
        ],
        "baseColorTexture": {
          "index": 4,
          "texCoord": 0
        },
        "metallicFactor": 0,
        "roughnessFactor": 0.59999999999999998
      }
    },
    {
      "alphaMode": "BLEND",
      "doubleSided": true,
      "emissiveFactor": [
        0,
        0,
        0
      ],
      "name": "Model001_Material003",
      "normalTexture": {
        "index": 11,
        "scale": 1,
        "texCoord": 0
      },
      "pbrMetallicRoughness": {
        "baseColorFactor": [
          1,
          1,
          1,
          1
        ],
        "baseColorTexture": {
          "index": 10,
          "texCoord": 0
        },
        "metallicFactor": 0,
        "roughnessFactor": 0.59999999999999998
      }
    },
    {
      "alphaMode": "BLEND",
      "doubleSided": true,
      "emissiveFactor": [
        0,
        0,
        0
      ],
      "name": "Model001_Material004",
      "normalTexture": {
        "index": 7,
        "scale": 1,
        "texCoord": 0
      },
      "pbrMetallicRoughness": {
        "baseColorFactor": [
          1,
          1,
          1,
          1
        ],
        "baseColorTexture": {
          "index": 6,
          "texCoord": 0
        },
        "metallicFactor": 0,
        "roughnessFactor": 0.59999999999999998
      }
    },
    {
      "doubleSided": true,
      "emissiveFactor": [
        0,
        0,
        0
      ],
      "name": "Model001_Material005",
      "normalTexture": {
        "index": 1,
        "scale": 1,
        "texCoord": 0
      },
      "pbrMetallicRoughness": {
        "baseColorFactor": [
          1,
          1,
          1,
          1
        ],
        "baseColorTexture": {
          "index": 0,
          "texCoord": 0
        },
        "metallicFactor": 0,
        "roughnessFactor": 0.59999999999999998
      }
    },
    {
      "alphaMode": "BLEND",
      "doubleSided": true,
      "emissiveFactor": [
        0,
        0,
        0
      ],
      "name": "Model001_Material006",
      "normalTexture": {
        "index": 3,
        "scale": 1,
        "texCoord": 0
      },
      "pbrMetallicRoughness": {
        "baseColorFactor": [
          1,
          1,
          1,
          1
        ],
        "baseColorTexture": {
          "index": 2,
          "texCoord": 0
        },
        "metallicFactor": 0,
        "roughnessFactor": 0.59999999999999998
      }
    }
  ],
  "meshes": [
    {
      "primitives": [
        {
          "attributes": {
            "NORMAL": 1,
            "POSITION": 0,
            "TANGENT": 2,
            "TEXCOORD_0": 3
          },
          "indices": 4,
          "material": 0,
          "mode": 4
        }
      ]
    },
    {
      "primitives": [
        {
          "attributes": {
            "NORMAL": 6,
            "POSITION": 5,
            "TANGENT": 7,
            "TEXCOORD_0": 8
          },
          "indices": 9,
          "material": 1,
          "mode": 4
        }
      ]
    },
    {
      "primitives": [
        {
          "attributes": {
            "NORMAL": 11,
            "POSITION": 10,
            "TANGENT": 12,
            "TEXCOORD_0": 13
          },
          "indices": 14,
          "material": 2,
          "mode": 4
        }
      ]
    },
    {
      "primitives": [
        {
          "attributes": {
            "NORMAL": 16,
            "POSITION": 15,
            "TANGENT": 17,
            "TEXCOORD_0": 18
          },
          "indices": 19,
          "material": 3,
          "mode": 4
        }
      ]
    },
    {
      "primitives": [
        {
          "attributes": {
            "NORMAL": 21,
            "POSITION": 20,
            "TANGENT": 22,
            "TEXCOORD_0": 23
          },
          "indices": 24,
          "material": 4,
          "mode": 4
        }
      ]
    },
    {
      "primitives": [
        {
          "attributes": {
            "NORMAL": 26,
            "POSITION": 25,
            "TANGENT": 27,
            "TEXCOORD_0": 28
          },
          "indices": 29,
          "material": 5,
          "mode": 4
        }
      ]
    }
  ],
  "nodes": [
    {
      "children": [
        1
      ],
      "name": "RootNode (gltf orientation matrix)",
      "rotation": [
        -0.70710678118654746,
        -0,
        -0,
        0.70710678118654757
      ]
    },
    {
      "children": [
        2
      ],
      "name": "RootNode (model correction matrix)"
    },
    {
      "children": [
        3,
        4,
        5,
        6,
        7,
        8
      ],
      "name": "jade.obj.cleaner.materialmerger.gles"
    },
    {
      "mesh": 0,
      "name": ""
    },
    {
      "mesh": 1,
      "name": ""
    },
    {
      "mesh": 2,
      "name": ""
    },
    {
      "mesh": 3,
      "name": ""
    },
    {
      "mesh": 4,
      "name": ""
    },
    {
      "mesh": 5,
      "name": ""
    }
  ],
  "samplers": [
    {
      "magFilter": 9729,
      "minFilter": 9987,
      "wrapS": 10497,
      "wrapT": 10497
    }
  ],
  "scene": 0,
  "scenes": [
    {
      "name": "OSG_Scene",
      "nodes": [
        0
      ]
    }
  ],
  "textures": [
    {
      "sampler": 0,
      "source": 0
    },
    {
      "sampler": 0,
      "source": 1
    },
    {
      "sampler": 0,
      "source": 2
    },
    {
      "sampler": 0,
      "source": 3
    },
    {
      "sampler": 0,
      "source": 4
    },
    {
      "sampler": 0,
      "source": 5
    },
    {
      "sampler": 0,
      "source": 6
    },
    {
      "sampler": 0,
      "source": 7
    },
    {
      "sampler": 0,
      "source": 8
    },
    {
      "sampler": 0,
      "source": 9
    },
    {
      "sampler": 0,
      "source": 10
    },
    {
      "sampler": 0,
      "source": 11
    }
  ]
}

